<svg width="25" height="23" viewBox="0 0 25 23" fill="none" xmlns="http://www.w3.org/2000/svg">
<path d="M0.000976562 22.862V8.70996C0.000976562 4.33334 3.07931 0.771973 6.86232 0.771973H18.138C21.9218 0.771973 25.001 4.33334 25.001 8.70996V11.1509C25.001 15.5276 21.9226 19.0889 18.1396 19.0889H7.02138L0.000976562 22.862ZM6.86232 2.54169C3.92245 2.54169 1.53066 5.30878 1.53066 8.70996V20.0882L6.68429 17.3183H18.1396C21.0795 17.3183 23.4713 14.5512 23.4713 11.15V8.709C23.4713 5.30783 21.0787 2.54074 18.138 2.54074H6.86232V2.54169ZM7.36672 8.57551C8.1703 8.57551 8.8214 9.32878 8.8214 10.2585C8.8214 11.1881 8.1703 11.9414 7.36672 11.9414C6.56314 11.9414 5.91203 11.1881 5.91203 10.2585C5.91203 9.32878 6.56314 8.57551 7.36672 8.57551ZM17.6344 8.57551C18.438 8.57551 19.0891 9.32878 19.0891 10.2585C19.0891 11.1881 18.438 11.9414 17.6344 11.9414C16.8308 11.9414 16.1797 11.1881 16.1797 10.2585C16.1797 9.32878 16.8308 8.57551 17.6344 8.57551ZM12.4997 8.57551C13.3033 8.57551 13.9544 9.32878 13.9544 10.2585C13.9544 11.1881 13.3033 11.9414 12.4997 11.9414C11.6962 11.9414 11.0451 11.1881 11.0451 10.2585C11.0451 9.32878 11.6962 8.57551 12.4997 8.57551Z" fill="#B5C3CB"/>
</svg>
