<svg xmlns="http://www.w3.org/2000/svg" aria-hidden="true" style="position:absolute;width:0;height:0;overflow:hidden"><defs><symbol id="icon-arrow" viewBox="0 0 17 32"><path d="M17.017 17.009c0 .521-.199 1.043-.596 1.44L3.912 30.957a2.036 2.036 0 1 1-2.881-2.881l11.068-11.068L1.031 5.94a2.038 2.038 0 0 1 2.881-2.881l12.509 12.508c.397.398.596.919.596 1.44z"/></symbol><symbol id="icon-arrow-long" viewBox="0 0 36 32"><path d="m1.999 18.788-.056-.012h23.792l-7.479 7.496c-.366.366-.567.862-.567 1.382s.201 1.013.567 1.379l1.164 1.164c.366.366.854.568 1.374.568s1.008-.201 1.374-.567l12.821-12.82a1.93 1.93 0 0 0 .567-1.377 1.926 1.926 0 0 0-.567-1.38L22.168 1.8c-.366-.366-.854-.567-1.374-.567s-1.008.201-1.374.567l-1.164 1.164c-.366.365-.567.853-.567 1.374s.201.982.567 1.348l7.564 7.538H1.972C.9 13.224 0 14.148 0 15.219v1.647c0 1.071.927 1.922 1.999 1.922z"/></symbol><symbol id="icon-chat" viewBox="0 0 35 32"><path d="M.001 31.808v-19.69c0-6.089 4.283-11.044 9.546-11.044h15.688c5.264 0 9.549 4.955 9.549 11.044v3.396c0 6.089-4.283 11.044-9.546 11.044H9.769l-9.768 5.25zM9.548 3.536c-4.09 0-7.418 3.85-7.418 8.582v15.831l7.17-3.854h15.938c4.09 0 7.418-3.85 7.418-8.582v-3.396c0-4.732-3.329-8.582-7.42-8.582l-15.688.001zm.701 8.395c1.118 0 2.024 1.048 2.024 2.342s-.906 2.341-2.024 2.341-2.024-1.048-2.024-2.341c0-1.294.906-2.342 2.024-2.342zm14.286 0c1.118 0 2.024 1.048 2.024 2.342s-.906 2.341-2.024 2.341-2.024-1.048-2.024-2.341c0-1.294.906-2.342 2.024-2.342zm-7.144 0c1.118 0 2.024 1.048 2.024 2.342s-.906 2.341-2.024 2.341c-1.118 0-2.024-1.048-2.024-2.341s.906-2.342 2.024-2.342z"/></symbol><symbol id="icon-check" viewBox="0 0 43 32"><path d="m41.156 5.917-21.88 24.616a2.735 2.735 0 0 1-2.046.916 2.75 2.75 0 0 1-1.708-.596L1.846 19.911a2.737 2.737 0 0 1 3.418-4.272l11.647 9.317L37.067 2.283a2.737 2.737 0 0 1 4.09 3.636z"/></symbol><symbol id="icon-close" viewBox="0 0 32 32"><path d="M16.001 0c-8.836 0-16 7.164-16 16S7.164 32 16 32s16-7.164 16-16S24.836 0 16 0zm6.036 22.098a1.636 1.636 0 0 1-2.312 0l-3.641-3.641-3.806 3.807a1.636 1.636 0 0 1-2.312-2.313l3.806-3.806-3.544-3.544a1.636 1.636 0 0 1 2.312-2.312l3.544 3.544 3.378-3.378a1.635 1.635 0 1 1 2.312 2.312l-3.378 3.378 3.64 3.641a1.635 1.635 0 0 1 0 2.312z"/></symbol><symbol id="icon-internet" viewBox="0 0 41 32"><path d="M6.689 14.385a2.213 2.213 0 0 0 0 3.12 2.213 2.213 0 0 0 3.12 0c5.936-5.936 15.598-5.936 21.534 0a2.197 2.197 0 0 0 3.112 0 2.213 2.213 0 0 0 0-3.12c-7.652-7.66-20.113-7.66-27.765 0z"/><path d="M12.642 20.338a2.213 2.213 0 0 0 0 3.12 2.213 2.213 0 0 0 3.12 0c2.649-2.657 6.971-2.657 9.619 0 .429.429.992.648 1.556.648s1.127-.219 1.556-.648a2.202 2.202 0 0 0 0-3.111c-4.364-4.381-11.478-4.381-15.85-.008zM20.571 31.193a2.935 2.935 0 1 0 0-5.87 2.935 2.935 0 0 0 0 5.87zM40.5 8.33C29.51-2.652 11.634-2.652.644 8.33a2.213 2.213 0 0 0 0 3.12 2.213 2.213 0 0 0 3.12 0c9.266-9.275 24.351-9.275 33.626 0a2.197 2.197 0 0 0 3.112-.001 2.213 2.213 0 0 0 0-3.12z"/></symbol><symbol id="icon-location" viewBox="0 0 28 32"><path d="M14.08 0C6.923 0 1.1 5.199 1.1 11.589c0 7.93 11.616 19.573 12.11 20.065.464.462 1.276.461 1.739 0 .495-.492 12.11-12.134 12.11-20.065C27.059 5.199 21.236 0 14.079 0zm0 29.358C10.171 25.212 3.438 17.032 3.438 11.589c0-5.24 4.774-9.502 10.642-9.502s10.642 4.263 10.642 9.502c0 5.443-6.732 13.621-10.642 17.769z"/><path d="M14.08 5.758c-3.601 0-6.53 2.616-6.53 5.831s2.93 5.831 6.53 5.831c3.601 0 6.53-2.616 6.53-5.831s-2.93-5.831-6.53-5.831zm0 9.575c-2.312 0-4.193-1.679-4.193-3.744s1.881-3.744 4.193-3.744c2.312 0 4.193 1.679 4.193 3.744s-1.881 3.744-4.193 3.744z"/></symbol><symbol id="icon-members" viewBox="0 0 38 32"><path stroke-width=".356" d="M25.812 18.16c3.546.264 6.973 1.248 9.987 2.981 1.058.607 1.713 1.768 1.713 3.025v6.279c0 .712-.577 1.289-1.289 1.289H30.49v-2.578h4.444v-4.99c0-.348-.167-.646-.417-.79a20.467 20.467 0 0 0-4.734-1.954l-.068-.019-.036-.06a5.218 5.218 0 0 0-1.837-1.821c-.674-.387-1.39-.698-2.115-1.023l.086-.339z"/><path stroke-width=".356" d="M2.424 21.141c7.049-4.053 16.548-4.053 23.597 0 1.059.609 1.713 1.769 1.713 3.024v6.279c0 .712-.577 1.289-1.289 1.289H2.001a1.289 1.289 0 0 1-1.289-1.289v-6.278c0-1.257.654-2.416 1.713-3.025zm22.313 2.235c-6.269-3.603-14.761-3.603-21.029 0-.251.144-.418.442-.418.79v4.99h21.866v-4.991a.922.922 0 0 0-.328-.728l-.09-.061zM24.001.266c4.386 0 7.955 3.569 7.955 7.956s-3.569 7.956-7.955 7.956c-.787 0-1.552-.15-2.287-.377l-.3-.092.233-.21c.625-.562 1.192-1.175 1.653-1.872l.059-.09.108.011c.202.021.361.051.535.051 2.965 0 5.378-2.413 5.378-5.378s-2.413-5.377-5.378-5.378c-.174 0-.334.03-.536.051l-.107.011-.06-.09c-.461-.696-1.027-1.31-1.652-1.872l-.233-.21.3-.093c.735-.226 1.5-.376 2.287-.376z"/><path stroke-width=".356" d="M14.222.266c4.386 0 7.956 3.569 7.956 7.956s-3.569 7.956-7.956 7.956c-4.386 0-7.956-3.569-7.956-7.956S9.835.266 14.222.266zm0 2.579c-2.965 0-5.378 2.413-5.378 5.378s2.413 5.378 5.378 5.378c2.965 0 5.378-2.413 5.378-5.378s-2.413-5.378-5.378-5.378z"/></symbol><symbol id="icon-pack-family" viewBox="0 0 41 32"><path stroke-width=".492" d="M25.712 19.006c3.004.399 5.886 1.332 8.459 2.812.934.536 1.521 1.567 1.521 2.695v6.361a.88.88 0 0 1-.879.88h-5.382v-1.759h4.502v-5.481c0-.454-.205-.881-.563-1.124l-.074-.046-.288-.162a21.261 21.261 0 0 0-4.515-1.833 5.746 5.746 0 0 0-1.803-1.816l-.156-.094a14.616 14.616 0 0 0-.821-.433zM1.767 21.818c6.901-3.967 16.177-4.029 23.152-.186l.33.186c.935.538 1.521 1.569 1.521 2.695v6.362a.88.88 0 0 1-.88.88H1.125a.88.88 0 0 1-.879-.88v-6.361l.007-.21c.068-1.044.638-1.981 1.514-2.486zm22.607 1.526c-6.483-3.726-15.248-3.726-21.73 0-.404.232-.638.686-.638 1.17v5.481h23.006v-5.482c0-.483-.234-.937-.638-1.169zM22.431.726c4.209 0 7.634 3.425 7.634 7.634s-3.425 7.634-7.634 7.634a7.044 7.044 0 0 1-1.777-.245 10.05 10.05 0 0 0 1.334-1.551c.137.017.293.037.443.037 3.239 0 5.875-2.636 5.875-5.875s-2.635-5.874-5.875-5.875c-.15 0-.307.019-.443.037A10.105 10.105 0 0 0 20.654.971a7.044 7.044 0 0 1 1.777-.245z"/><path d="M32.718 18.407c2.579.286 5.058 1.06 7.258 2.338h.001c.771.447 1.255 1.307 1.255 2.246v5.144a.784.784 0 0 1-.778.788h-4.382v-1.575h3.604v-4.357c0-.367-.176-.708-.472-.88h-.001a16.75 16.75 0 0 0-3.855-1.614 4.504 4.504 0 0 0-1.558-1.543 13.34 13.34 0 0 0-1.072-.547zM30.422 3.569c3.518 0 6.378 2.818 6.378 6.277s-2.86 6.277-6.378 6.277a6.101 6.101 0 0 1-1.622-.238 8.253 8.253 0 0 0 1.218-1.38c.126.015.267.036.404.036 2.626 0 4.766-2.104 4.766-4.695s-2.14-4.694-4.766-4.694c-.138 0-.279.019-.405.035a8.292 8.292 0 0 0-1.217-1.38 6.1 6.1 0 0 1 1.622-.237z"/><path stroke-width=".492" d="M13.508.726c4.209 0 7.634 3.425 7.634 7.634s-3.425 7.634-7.634 7.634c-4.208 0-7.634-3.425-7.634-7.634S9.299.726 13.508.726zm0 1.76c-3.239 0-5.874 2.635-5.875 5.874s2.635 5.874 5.875 5.875c3.239 0 5.874-2.635 5.874-5.875s-2.635-5.875-5.875-5.875z"/></symbol><symbol id="icon-pack-starter" viewBox="0 0 36 32"><path stroke-width=".492" d="M1.767 21.818c6.901-3.967 16.177-4.029 23.152-.186l.33.186c.935.538 1.521 1.569 1.521 2.695v6.362a.88.88 0 0 1-.88.88H1.125a.88.88 0 0 1-.879-.88v-6.361l.007-.21c.068-1.044.638-1.981 1.514-2.486zm22.607 1.526c-6.483-3.726-15.248-3.726-21.73 0-.404.232-.638.686-.638 1.17v5.481h23.006v-5.482c0-.483-.234-.937-.638-1.169zM25.712 19.006c3.004.399 5.886 1.332 8.459 2.812.934.536 1.521 1.567 1.521 2.695v6.361a.88.88 0 0 1-.879.88h-5.382v-1.759h4.502v-5.481c0-.454-.205-.881-.563-1.124l-.074-.046-.288-.163a21.314 21.314 0 0 0-4.515-1.833 5.746 5.746 0 0 0-1.803-1.816l-.156-.094a14.616 14.616 0 0 0-.821-.433zM22.431.726c4.209 0 7.634 3.425 7.634 7.634s-3.425 7.634-7.634 7.634a7.044 7.044 0 0 1-1.777-.245 10.05 10.05 0 0 0 1.334-1.551c.137.017.293.037.443.037 3.239 0 5.875-2.636 5.875-5.875s-2.635-5.874-5.875-5.875c-.15 0-.307.019-.443.037A10.105 10.105 0 0 0 20.654.971a7.044 7.044 0 0 1 1.777-.245z"/><path stroke-width=".492" d="M13.508.727c4.209 0 7.634 3.425 7.634 7.634s-3.425 7.634-7.634 7.634c-4.208 0-7.634-3.425-7.634-7.634S9.299.727 13.508.727zm0 1.759c-3.239 0-5.874 2.635-5.875 5.874s2.635 5.874 5.875 5.875c3.239 0 5.874-2.635 5.874-5.875s-2.635-5.875-5.875-5.875z"/></symbol><symbol id="icon-space" viewBox="0 0 32 32"><path d="M0 3.555v7.111h3.556V3.555h7.111V-.001H3.556A3.555 3.555 0 0 0 0 3.555zM3.556 21.333H0v7.111A3.555 3.555 0 0 0 3.556 32h7.111v-3.556H3.556v-7.111zM28.445 28.444h-7.111V32h7.111a3.555 3.555 0 0 0 3.556-3.556v-7.111h-3.556v7.111zM28.445 0h-7.111v3.556h7.111v7.111h3.556V3.556A3.555 3.555 0 0 0 28.445 0z"/></symbol></defs></svg>