<svg aria-hidden="true" style="position: absolute; width: 0; height: 0; overflow: hidden;" version="1.1" xmlns="http://www.w3.org/2000/svg" xmlns:xlink="http://www.w3.org/1999/xlink">
<defs>
<symbol id="icon-arrow" viewBox="0 0 17 32">
<path d="M17.017 17.009c0 0.521-0.199 1.043-0.596 1.44l-12.509 12.508c-0.796 0.796-2.086 0.796-2.881 0s-0.795-2.085 0-2.881l11.068-11.068-11.068-11.068c-0.795-0.796-0.795-2.085 0-2.881s2.085-0.796 2.881 0l12.509 12.508c0.397 0.398 0.596 0.919 0.596 1.44z"></path>
</symbol>
<symbol id="icon-arrow-long" viewBox="0 0 36 32">
<path d="M1.999 18.788l-0.056-0.012h23.792l-7.479 7.496c-0.366 0.366-0.567 0.862-0.567 1.382s0.201 1.013 0.567 1.379l1.164 1.164c0.366 0.366 0.854 0.568 1.374 0.568s1.008-0.201 1.374-0.567l12.821-12.82c0.367-0.367 0.568-0.857 0.567-1.377 0.001-0.524-0.199-1.013-0.567-1.38l-12.821-12.821c-0.366-0.366-0.854-0.567-1.374-0.567s-1.008 0.201-1.374 0.567l-1.164 1.164c-0.366 0.365-0.567 0.853-0.567 1.374s0.201 0.982 0.567 1.348l7.564 7.538h-23.848c-1.072 0-1.972 0.924-1.972 1.995v1.647c0 1.071 0.927 1.922 1.999 1.922z"></path>
</symbol>
<symbol id="icon-chat" viewBox="0 0 35 32">
<path d="M0.001 31.808v-19.69c0-6.089 4.283-11.044 9.546-11.044h15.688c5.264 0 9.549 4.955 9.549 11.044v3.396c0 6.089-4.283 11.044-9.546 11.044h-15.469l-9.768 5.25zM9.548 3.536c-4.090 0-7.418 3.85-7.418 8.582v15.831l7.17-3.854h15.938c4.090 0 7.418-3.85 7.418-8.582v-3.396c0-4.732-3.329-8.582-7.42-8.582l-15.688 0.001zM10.249 11.931c1.118 0 2.024 1.048 2.024 2.342s-0.906 2.341-2.024 2.341-2.024-1.048-2.024-2.341c0-1.294 0.906-2.342 2.024-2.342zM24.535 11.931c1.118 0 2.024 1.048 2.024 2.342s-0.906 2.341-2.024 2.341-2.024-1.048-2.024-2.341c0-1.294 0.906-2.342 2.024-2.342zM17.391 11.931c1.118 0 2.024 1.048 2.024 2.342s-0.906 2.341-2.024 2.341c-1.118 0-2.024-1.048-2.024-2.341s0.906-2.342 2.024-2.342z"></path>
</symbol>
<symbol id="icon-check" viewBox="0 0 43 32">
<path d="M41.156 5.917l-21.88 24.616c-0.539 0.604-1.289 0.916-2.046 0.916-0.6 0-1.203-0.197-1.708-0.596l-13.676-10.942c-1.179-0.942-1.37-2.665-0.426-3.846 0.942-1.178 2.665-1.371 3.844-0.426l11.647 9.317 20.156-22.673c1.002-1.132 2.732-1.233 3.861-0.227 1.13 1.004 1.232 2.732 0.229 3.863z"></path>
</symbol>
<symbol id="icon-close" viewBox="0 0 32 32">
<path d="M16.001 0c-8.836 0-16 7.164-16 16s7.163 16 15.999 16 16-7.164 16-16c0-8.836-7.164-16-16-16zM22.037 22.098c-0.639 0.638-1.674 0.638-2.312 0l-3.641-3.641-3.806 3.807c-0.639 0.638-1.674 0.638-2.312 0s-0.639-1.674 0-2.313l3.806-3.806-3.544-3.544c-0.638-0.639-0.638-1.674 0-2.312s1.674-0.639 2.312 0l3.544 3.544 3.378-3.378c0.638-0.638 1.674-0.639 2.312 0s0.639 1.674 0 2.312l-3.378 3.378 3.64 3.641c0.638 0.638 0.639 1.674-0 2.312z"></path>
</symbol>
<symbol id="icon-internet" viewBox="0 0 41 32">
<path d="M6.689 14.385c-0.858 0.858-0.858 2.253 0 3.12 0.858 0.858 2.253 0.858 3.12 0 5.936-5.936 15.598-5.936 21.534 0 0.429 0.429 0.992 0.647 1.556 0.647s1.127-0.219 1.556-0.647c0.858-0.858 0.858-2.254 0-3.12-7.652-7.66-20.113-7.66-27.765 0z"></path>
<path d="M12.642 20.338c-0.858 0.858-0.858 2.253 0 3.12 0.858 0.858 2.253 0.858 3.12 0 2.649-2.657 6.971-2.657 9.619 0 0.429 0.429 0.992 0.648 1.556 0.648s1.127-0.219 1.556-0.648c0.858-0.858 0.858-2.253 0-3.111-4.364-4.381-11.478-4.381-15.85-0.008z"></path>
<path d="M20.571 31.193c1.621 0 2.935-1.314 2.935-2.935s-1.314-2.935-2.935-2.935c-1.621 0-2.935 1.314-2.935 2.935s1.314 2.935 2.935 2.935z"></path>
<path d="M40.5 8.33c-10.99-10.982-28.866-10.982-39.856 0-0.858 0.858-0.858 2.253 0 3.12 0.858 0.858 2.253 0.858 3.12 0 9.266-9.275 24.351-9.275 33.626 0 0.429 0.429 0.992 0.647 1.556 0.647s1.127-0.219 1.556-0.648c0.858-0.858 0.858-2.253 0-3.12z"></path>
</symbol>
<symbol id="icon-location" viewBox="0 0 28 32">
<path d="M14.080 0c-7.157 0-12.98 5.199-12.98 11.589 0 7.93 11.616 19.573 12.11 20.065 0.464 0.462 1.276 0.461 1.739 0 0.495-0.492 12.11-12.134 12.11-20.065-0-6.39-5.823-11.589-12.98-11.589zM14.080 29.358c-3.909-4.146-10.642-12.326-10.642-17.769 0-5.24 4.774-9.502 10.642-9.502s10.642 4.263 10.642 9.502c0 5.443-6.732 13.621-10.642 17.769z"></path>
<path d="M14.080 5.758c-3.601 0-6.53 2.616-6.53 5.831s2.93 5.831 6.53 5.831c3.601 0 6.53-2.616 6.53-5.831s-2.93-5.831-6.53-5.831zM14.080 15.333c-2.312 0-4.193-1.679-4.193-3.744s1.881-3.744 4.193-3.744c2.312 0 4.193 1.679 4.193 3.744s-1.881 3.744-4.193 3.744z"></path>
</symbol>
<symbol id="icon-members" viewBox="0 0 38 32">
<path stroke-linejoin="miter" stroke-linecap="butt" stroke-miterlimit="4" stroke-width="0.3556" d="M25.812 18.16c3.546 0.264 6.973 1.248 9.987 2.981 1.058 0.607 1.713 1.768 1.713 3.025v6.279c-0 0.712-0.577 1.289-1.289 1.289h-5.733v-2.578h4.444v-4.99c-0-0.348-0.167-0.646-0.417-0.79-1.477-0.849-3.073-1.493-4.734-1.954l-0.068-0.019-0.036-0.060c-0.455-0.743-1.071-1.381-1.837-1.821-0.674-0.387-1.39-0.698-2.115-1.023l0.086-0.339z"></path>
<path stroke-linejoin="miter" stroke-linecap="butt" stroke-miterlimit="4" stroke-width="0.3556" d="M2.424 21.141c7.049-4.053 16.548-4.053 23.597 0 1.059 0.609 1.713 1.769 1.713 3.024v6.279c0 0.712-0.577 1.289-1.289 1.289h-24.444c-0.712 0-1.289-0.577-1.289-1.289v-6.278c0-1.257 0.654-2.416 1.713-3.025zM24.737 23.376c-6.269-3.603-14.761-3.603-21.029 0-0.251 0.144-0.418 0.442-0.418 0.79v4.99h21.866v-4.991c0-0.303-0.128-0.57-0.328-0.728l-0.090-0.061z"></path>
<path stroke-linejoin="miter" stroke-linecap="butt" stroke-miterlimit="4" stroke-width="0.3556" d="M24.001 0.266c4.386 0 7.955 3.569 7.955 7.956s-3.569 7.956-7.955 7.956c-0.787 0-1.552-0.15-2.287-0.377l-0.3-0.092 0.233-0.21c0.625-0.562 1.192-1.175 1.653-1.872l0.059-0.090 0.108 0.011c0.202 0.021 0.361 0.051 0.535 0.051 2.965-0 5.378-2.413 5.378-5.378s-2.413-5.377-5.378-5.378c-0.174 0-0.334 0.030-0.536 0.051l-0.107 0.011-0.060-0.090c-0.461-0.696-1.027-1.31-1.652-1.872l-0.233-0.21 0.3-0.093c0.735-0.226 1.5-0.376 2.287-0.376z"></path>
<path stroke-linejoin="miter" stroke-linecap="butt" stroke-miterlimit="4" stroke-width="0.3556" d="M14.222 0.266c4.386 0 7.956 3.569 7.956 7.956s-3.569 7.956-7.956 7.956c-4.386 0-7.956-3.569-7.956-7.956s3.569-7.956 7.956-7.956zM14.222 2.845c-2.965 0-5.378 2.413-5.378 5.378s2.413 5.378 5.378 5.378c2.965 0 5.378-2.413 5.378-5.378s-2.413-5.378-5.378-5.378z"></path>
</symbol>
<symbol id="icon-pack-family" viewBox="0 0 41 32">
<path stroke-linejoin="miter" stroke-linecap="butt" stroke-miterlimit="4" stroke-width="0.4923" d="M25.712 19.006c3.004 0.399 5.886 1.332 8.459 2.812 0.934 0.536 1.521 1.567 1.521 2.695v6.361c0 0.486-0.393 0.88-0.879 0.88h-5.382v-1.759h4.502v-5.481c0-0.454-0.205-0.881-0.563-1.124l-0.074-0.046-0.288-0.162c-1.421-0.785-2.941-1.389-4.515-1.833-0.457-0.721-1.060-1.353-1.803-1.816l-0.156-0.094c-0.269-0.154-0.544-0.297-0.821-0.433z"></path>
<path stroke-linejoin="miter" stroke-linecap="butt" stroke-miterlimit="4" stroke-width="0.4923" d="M1.767 21.818c6.901-3.967 16.177-4.029 23.152-0.186l0.33 0.186c0.935 0.538 1.521 1.569 1.521 2.695v6.362c0 0.486-0.393 0.88-0.88 0.88h-24.765c-0.486-0-0.879-0.394-0.879-0.88v-6.361l0.007-0.21c0.068-1.044 0.638-1.981 1.514-2.486zM24.374 23.344c-6.483-3.726-15.248-3.726-21.73 0-0.404 0.232-0.638 0.686-0.638 1.17v5.481h23.006v-5.482c0-0.483-0.234-0.937-0.638-1.169z"></path>
<path stroke-linejoin="miter" stroke-linecap="butt" stroke-miterlimit="4" stroke-width="0.4923" d="M22.431 0.726c4.209 0 7.634 3.425 7.634 7.634s-3.425 7.634-7.634 7.634c-0.601 0-1.193-0.093-1.777-0.245 0.491-0.471 0.944-0.984 1.334-1.551 0.137 0.017 0.293 0.037 0.443 0.037 3.239-0 5.875-2.636 5.875-5.875s-2.635-5.874-5.875-5.875c-0.15 0-0.307 0.019-0.443 0.037-0.391-0.567-0.843-1.080-1.334-1.551 0.584-0.152 1.176-0.245 1.777-0.245z"></path>
<path d="M32.718 18.407c2.579 0.286 5.058 1.060 7.258 2.338h0.001c0.771 0.447 1.255 1.307 1.255 2.246v5.144c0 0.436-0.349 0.787-0.778 0.788h-4.382v-1.575h3.604v-4.357c0-0.367-0.176-0.708-0.472-0.88h-0.001c-1.206-0.7-2.505-1.232-3.855-1.614-0.387-0.625-0.908-1.166-1.558-1.543-0.348-0.202-0.709-0.378-1.072-0.547z"></path>
<path d="M30.422 3.569c3.518 0 6.378 2.818 6.378 6.277s-2.86 6.277-6.378 6.277c-0.551 0-1.092-0.092-1.622-0.238 0.452-0.416 0.867-0.871 1.218-1.38 0.126 0.015 0.267 0.036 0.404 0.036 2.626-0 4.766-2.104 4.766-4.695s-2.14-4.694-4.766-4.694c-0.138 0-0.279 0.019-0.405 0.035-0.351-0.509-0.766-0.964-1.217-1.38 0.53-0.146 1.071-0.237 1.622-0.237z"></path>
<path stroke-linejoin="miter" stroke-linecap="butt" stroke-miterlimit="4" stroke-width="0.4923" d="M13.508 0.726c4.209 0 7.634 3.425 7.634 7.634s-3.425 7.634-7.634 7.634c-4.208-0-7.634-3.425-7.634-7.634s3.425-7.634 7.634-7.634zM13.508 2.486c-3.239 0-5.874 2.635-5.875 5.874s2.635 5.874 5.875 5.875c3.239 0 5.874-2.635 5.874-5.875s-2.635-5.875-5.875-5.875z"></path>
</symbol>
<symbol id="icon-pack-starter" viewBox="0 0 36 32">
<path stroke-linejoin="miter" stroke-linecap="butt" stroke-miterlimit="4" stroke-width="0.4923" d="M1.767 21.818c6.901-3.967 16.177-4.029 23.152-0.186l0.33 0.186c0.935 0.538 1.521 1.569 1.521 2.695v6.362c0 0.486-0.393 0.88-0.88 0.88h-24.765c-0.486-0-0.879-0.394-0.879-0.88v-6.361l0.007-0.21c0.068-1.044 0.638-1.981 1.514-2.486zM24.374 23.344c-6.483-3.726-15.248-3.726-21.73 0-0.404 0.232-0.638 0.686-0.638 1.17v5.481h23.006v-5.482c0-0.483-0.234-0.937-0.638-1.169z"></path>
<path stroke-linejoin="miter" stroke-linecap="butt" stroke-miterlimit="4" stroke-width="0.4923" d="M25.712 19.006c3.004 0.399 5.886 1.332 8.459 2.812 0.934 0.536 1.521 1.567 1.521 2.695v6.361c0 0.486-0.393 0.88-0.879 0.88h-5.382v-1.759h4.502v-5.481c0-0.454-0.205-0.881-0.563-1.124l-0.074-0.046-0.288-0.163c-1.421-0.784-2.941-1.389-4.515-1.833-0.457-0.721-1.060-1.353-1.803-1.816l-0.156-0.094c-0.269-0.154-0.544-0.297-0.821-0.433z"></path>
<path stroke-linejoin="miter" stroke-linecap="butt" stroke-miterlimit="4" stroke-width="0.4923" d="M22.431 0.726c4.209 0 7.634 3.425 7.634 7.634s-3.425 7.634-7.634 7.634c-0.601 0-1.193-0.093-1.777-0.245 0.491-0.471 0.944-0.984 1.334-1.551 0.137 0.017 0.293 0.037 0.443 0.037 3.239-0 5.875-2.636 5.875-5.875s-2.635-5.874-5.875-5.875c-0.15 0-0.307 0.019-0.443 0.037-0.391-0.567-0.843-1.080-1.334-1.551 0.584-0.152 1.176-0.245 1.777-0.245z"></path>
<path stroke-linejoin="miter" stroke-linecap="butt" stroke-miterlimit="4" stroke-width="0.4923" d="M13.508 0.727c4.209 0 7.634 3.425 7.634 7.634s-3.425 7.634-7.634 7.634c-4.208-0-7.634-3.425-7.634-7.634s3.425-7.634 7.634-7.634zM13.508 2.486c-3.239 0-5.874 2.635-5.875 5.874s2.635 5.874 5.875 5.875c3.239 0 5.874-2.635 5.874-5.875s-2.635-5.875-5.875-5.875z"></path>
</symbol>
<symbol id="icon-space" viewBox="0 0 32 32">
<path d="M0 3.555v7.111h3.556v-7.111h7.111v-3.556h-7.111c-1.964 0-3.556 1.591-3.556 3.556z"></path>
<path d="M3.556 21.333h-3.556v7.111c0 1.965 1.591 3.556 3.556 3.556h7.111v-3.556h-7.111v-7.111z"></path>
<path d="M28.445 28.444h-7.111v3.556h7.111c1.964 0 3.556-1.591 3.556-3.556v-7.111h-3.556v7.111z"></path>
<path d="M28.445-0h-7.111v3.556h7.111v7.111h3.556v-7.111c0-1.964-1.591-3.556-3.556-3.556z"></path>
</symbol>
</defs>
</svg>
