<svg width="73" height="65" viewBox="0 0 73 65" fill="none" xmlns="http://www.w3.org/2000/svg">
<path d="M3.58984 44.3177C17.6071 36.259 36.4495 36.1337 50.6172 43.9408L51.2881 44.3177C53.1877 45.4106 54.3779 47.5043 54.3779 49.7914V62.7133C54.3779 63.701 53.5786 64.5004 52.5908 64.5004H2.28613C1.29857 64.5001 0.5 63.7009 0.5 62.7133V49.7933L0.513672 49.3666C0.651368 47.2461 1.80903 45.3423 3.58984 44.3177ZM49.5088 47.4174C36.3407 39.8482 18.5372 39.8482 5.36914 47.4174C4.54854 47.8889 4.07324 48.8107 4.07324 49.7933V60.9271H50.8047V49.7914C50.8047 48.8107 50.3294 47.8888 49.5088 47.4174Z" fill="white" stroke="#020718"/>
<path d="M52.2285 38.6061C58.3311 39.4176 64.1834 41.3124 69.4111 44.3181C71.3079 45.4064 72.5001 47.501 72.5 49.7927V62.7126C72.5 63.7003 71.7016 64.4997 70.7139 64.4997H59.7812V60.9265H68.9268V49.7927C68.9268 48.8715 68.5096 48.0039 67.7832 47.5104L67.6338 47.4167L67.0479 47.0866C64.1607 45.4932 61.074 44.2657 57.877 43.364C56.949 41.8985 55.7241 40.6154 54.2139 39.6755L53.8965 39.485C53.3509 39.1714 52.7922 38.8815 52.2285 38.6061Z" fill="white" stroke="#020718"/>
<path d="M45.5625 1.47552C54.111 1.47567 61.0683 8.43286 61.0684 16.9814C61.0684 25.53 54.1109 32.4871 45.5625 32.4872C44.3423 32.4872 43.1386 32.2977 41.9531 31.9892C42.9497 31.0319 43.8696 29.9912 44.6631 28.8388C44.9404 28.874 45.2587 28.915 45.5625 28.915C52.1422 28.9148 57.4951 23.5611 57.4951 16.9814C57.4949 10.4018 52.1422 5.04891 45.5625 5.04877C45.2581 5.04877 44.9398 5.08786 44.6621 5.12299C43.8686 3.97082 42.9495 2.92978 41.9531 1.9726C43.1384 1.66417 44.3423 1.47552 45.5625 1.47552Z" fill="white" stroke="#020718"/>
<path d="M27.4388 1.47577C35.9874 1.47577 42.9445 8.43302 42.9446 16.9816C42.9446 25.5303 35.9873 32.4875 27.4388 32.4875C18.8903 32.4874 11.9329 25.5303 11.9329 16.9816C11.933 8.43308 18.8902 1.47587 27.4388 1.47577ZM27.4388 5.04901C20.8591 5.04911 15.5063 10.402 15.5061 16.9816C15.5061 23.5614 20.8591 28.9141 27.4388 28.9142C34.0185 28.9142 39.3714 23.5614 39.3714 16.9816C39.3713 10.4019 34.0186 5.04901 27.4388 5.04901Z" fill="white" stroke="#020718"/>
</svg>
