<svg width="84" height="65" viewBox="0 0 84 65" fill="none" xmlns="http://www.w3.org/2000/svg">
<path d="M52.2285 38.6062C58.3311 39.4177 64.1834 41.3125 69.4111 44.3181C71.3079 45.4064 72.5001 47.5011 72.5 49.7927V62.7126C72.5 63.7004 71.7016 64.4997 70.7139 64.4998H59.7812V60.9265H68.9268V49.7927C68.9268 48.8715 68.5096 48.0039 67.7832 47.5105L67.6338 47.4167L67.0479 47.0867C64.1607 45.4932 61.074 44.2658 57.877 43.364C56.949 41.8986 55.7241 40.6155 54.2139 39.6755L53.8965 39.4851C53.3509 39.1715 52.7922 38.8815 52.2285 38.6062Z" fill="#8D448B" stroke="white"/>
<path d="M3.58984 44.3176C17.6071 36.2588 36.4495 36.1335 50.6172 43.9406L51.2881 44.3176C53.1877 45.4104 54.3779 47.5041 54.3779 49.7912V62.7131C54.3779 63.7008 53.5786 64.5002 52.5908 64.5002H2.28613C1.29857 64.4999 0.5 63.7007 0.5 62.7131V49.7932L0.513672 49.3664C0.651368 47.246 1.80903 45.3421 3.58984 44.3176ZM49.5088 47.4172C36.3407 39.848 18.5372 39.848 5.36914 47.4172C4.54854 47.8887 4.07324 48.8105 4.07324 49.7932V60.9269H50.8047V49.7912C50.8047 48.8105 50.3294 47.8886 49.5088 47.4172Z" fill="#8D448B" stroke="white"/>
<path d="M45.5625 1.47559C54.111 1.47573 61.0683 8.43293 61.0684 16.9814C61.0684 25.53 54.1109 32.4872 45.5625 32.4873C44.3423 32.4873 43.1386 32.2978 41.9531 31.9893C42.9497 31.0319 43.8696 29.9913 44.6631 28.8389C44.9404 28.8741 45.2587 28.915 45.5625 28.915C52.1422 28.9149 57.4951 23.5611 57.4951 16.9814C57.4949 10.4019 52.1422 5.04897 45.5625 5.04883C45.2581 5.04883 44.9398 5.08792 44.6621 5.12305C43.8686 3.97088 42.9495 2.92984 41.9531 1.97266C43.1384 1.66423 44.3423 1.47559 45.5625 1.47559Z" fill="#8D448B" stroke="white"/>
<path d="M66.458 37.3896C71.6965 37.9715 76.7312 39.5435 81.2002 42.1396H81.2012C82.7678 43.048 83.7501 44.7947 83.75 46.7021V57.1504C83.75 58.0369 83.041 58.7499 82.1699 58.75H73.2686V55.5518H80.5898V46.7021C80.5898 45.9563 80.2332 45.2649 79.6309 44.9141H79.6299C77.1809 43.4923 74.5418 42.4118 71.7998 41.6348C71.0143 40.3656 69.9544 39.2674 68.6348 38.5C67.9287 38.0899 67.1952 37.7315 66.458 37.3896Z" fill="#8D448B" stroke="white" stroke-width="0.5"/>
<path d="M61.7949 7.25C68.9411 7.25018 74.75 12.9744 74.75 20C74.75 27.0256 68.941 32.7498 61.7949 32.75C60.6762 32.75 59.5765 32.5638 58.5 32.2676C59.4179 31.422 60.2609 30.4981 60.9736 29.4639C61.2287 29.4948 61.5157 29.5361 61.7949 29.5361C67.1298 29.536 71.4766 25.2614 71.4766 20C71.4765 14.7386 67.1299 10.465 61.7949 10.4648C61.5152 10.4648 61.2281 10.5043 60.9727 10.5352C60.26 9.50118 59.4177 8.57692 58.5 7.73145C59.5764 7.43526 60.6762 7.25 61.7949 7.25Z" fill="#8D448B" stroke="white" stroke-width="0.5"/>
<path d="M27.4388 1.47559C35.9874 1.47559 42.9445 8.43284 42.9446 16.9814C42.9446 25.5302 35.9873 32.4873 27.4388 32.4873C18.8903 32.4872 11.9329 25.5301 11.9329 16.9814C11.933 8.4329 18.8902 1.47569 27.4388 1.47559ZM27.4388 5.04883C20.8591 5.04893 15.5063 10.4018 15.5061 16.9814C15.5061 23.5612 20.8591 28.914 27.4388 28.9141C34.0186 28.9141 39.3714 23.5612 39.3714 16.9814C39.3713 10.4018 34.0186 5.04883 27.4388 5.04883Z" fill="#8D448B" stroke="white"/>
</svg>
